<?xml version="1.0" encoding="UTF-8"?>
<svg id="Calque_2" data-name="Calque 2" xmlns="http://www.w3.org/2000/svg" viewBox="0 0 97.94 96.18">
  <defs>
    <style>
      .cls-1 {
        fill: #5438a4;
      }

      .cls-1, .cls-2 {
        stroke-width: 0px;
      }

      .cls-2 {
        fill: #fff;
      }
    </style>
  </defs>
  <g id="Calque_1-2" data-name="Calque 1">
    <path class="cls-2" d="M68.01,69.18c-3.19,13.95-14.86,24.67-29.29,26.45-.89.12-1.79.19-2.7.24l-3.52-.02c-9.76-.55-18.43-5.15-24.36-12.15C3.06,77.7,0,69.94,0,61.46c0-3.44.5-6.76,1.44-9.89l2.11-5.36,10.17-25.89L21.7,0l19.18.1.05.14-7.93,20.18-2.69,6.85-10.29,26.18c-.7,1.26-1.24,2.62-1.59,4.06-.32,1.26-.48,2.59-.48,3.95,0,9.11,7.38,16.49,16.49,16.49,6.7,0,12.46-3.99,15.05-9.73.2-.44.38-.9.53-1.37l8.54-21.73,9.45,24.06Z"/>
    <polygon class="cls-1" points="97.94 96.18 78.58 96.08 68.22 69.71 68.01 69.18 58.56 45.12 60.83 39.33 68.19 20.59 68.25 20.6 68.22 20.53 68.22 20.52 76.18 .28 95.46 .38 87.48 20.69 77.88 45.12 97.94 96.18"/>
  </g>
</svg>