<?xml version="1.0" encoding="UTF-8"?>
<svg id="Calque_2" data-name="Calque 2" xmlns="http://www.w3.org/2000/svg" viewBox="0 0 235.17 149.51">
  <defs>
    <style>
      .cls-1, .cls-2 {
        fill: none;
      }

      .cls-1, .cls-3, .cls-4 {
        stroke-width: 0px;
      }

      .cls-2 {
        stroke: #fff;
        stroke-miterlimit: 10;
        stroke-width: .05px;
      }

      .cls-3 {
        fill: #5438a4;
      }

      .cls-4 {
        fill: #141115;
      }
    </style>
  </defs>
  <g id="Calque_1-2" data-name="Calque 1">
    <polyline class="cls-1" points="108.28 0 105.11 8.07 95.54 32.42"/>
    <path class="cls-4" d="M141.85,101.6c-3.19,13.95-14.86,24.67-29.29,26.45-.89.12-1.79.19-2.7.24l-3.52-.02c-9.76-.55-18.43-5.15-24.36-12.15-5.08-6-8.14-13.76-8.14-22.24,0-3.44.5-6.76,1.44-9.89l2.11-5.36,10.17-25.89,7.98-20.32,19.18.1.05.14-7.93,20.18-2.69,6.85-10.29,26.18c-.7,1.26-1.24,2.62-1.59,4.06-.32,1.26-.48,2.59-.48,3.95,0,9.11,7.38,16.49,16.49,16.49,6.7,0,12.46-3.99,15.05-9.73.2-.44.38-.9.53-1.37l8.54-21.73,9.45,24.06Z"/>
    <polyline class="cls-1" points="124.72 7.34 124.43 8.07 114.83 32.52 114.77 32.66"/>
    <line class="cls-1" x1="93.86" y1="85.87" x2="92.27" y2="89.93"/>
    <polyline class="cls-1" points="81.98 116.12 77.26 128.12 68.86 149.51"/>
    <line class="cls-1" x1="142.06" y1="52.95" x2="142.03" y2="53.01"/>
    <line class="cls-1" x1="162.11" y1="1.91" x2="150.02" y2="32.7"/>
    <line class="cls-1" x1="123.86" y1="99.27" x2="123.33" y2="100.64"/>
    <polyline class="cls-1" points="112.56 128.05 112.46 128.3 104.42 148.77"/>
    <line class="cls-1" x1="181.4" y1="1.99" x2="169.3" y2="32.8"/>
    <polyline class="cls-1" points="142.06 102.13 131.74 128.4 123.53 149.3"/>
    <path class="cls-2" d="M106.34,128.27l3.52.02c-.52.02-1.05.03-1.58.03-.65,0-1.3-.02-1.94-.05Z"/>
    <polyline class="cls-1" points="21.58 127.84 57.99 128.02 77.26 128.12 106.34 128.27"/>
    <line class="cls-1" x1="235.17" y1="128.92" x2="171.78" y2="128.6"/>
    <polyline class="cls-1" points="152.42 128.5 131.74 128.4 112.46 128.3 109.86 128.29"/>
    <polygon class="cls-3" points="171.78 128.6 152.42 128.5 142.06 102.13 141.85 101.6 132.4 77.54 134.67 71.75 142.03 53.01 142.09 53.02 142.06 52.95 142.06 52.94 150.02 32.7 169.3 32.8 161.32 53.11 151.72 77.54 171.78 128.6"/>
    <polyline class="cls-1" points="122.03 1.95 124.43 8.06 124.43 8.07 134.08 32.62 142.06 52.94"/>
    <line class="cls-1" x1="179.72" y1="148.81" x2="171.78" y2="128.6"/>
    <polyline class="cls-1" points="102.74 2.03 105.11 8.07 114.72 32.52"/>
    <polyline class="cls-1" points="114.77 32.66 122.73 52.92 127.63 65.39 132.4 77.54"/>
    <line class="cls-1" x1="160.61" y1="149.34" x2="152.42" y2="128.5"/>
    <line class="cls-1" x1="95.54" y1="32.42" x2="12.03" y2="32"/>
    <line class="cls-1" x1="225.62" y1="33.08" x2="169.3" y2="32.8"/>
    <polyline class="cls-1" points="150.02 32.7 134.08 32.62 114.83 32.52 114.72 32.52"/>
    <line class="cls-1" x1="87.56" y1="52.74" y2="52.29"/>
    <line class="cls-1" x1="213.59" y1="53.38" x2="161.32" y2="53.11"/>
    <polyline class="cls-1" points="142.03 53.01 122.73 52.92 106.84 52.84"/>
  </g>
</svg>