<?xml version="1.0" encoding="UTF-8"?>
<svg id="Calque_2" data-name="Calque 2" xmlns="http://www.w3.org/2000/svg" viewBox="0 0 55.2 49.49">
  <defs>
    <style>
      .cls-1 {
        fill: #fff;
        stroke: #fff;
        stroke-miterlimit: 10;
        stroke-width: .05px;
      }

      .cls-2 {
        fill: #5438a4;
        stroke-width: 0px;
      }
    </style>
  </defs>
  <g id="Calque_1-2" data-name="Calque 1">
    <path class="cls-1" d="M21.66,18.55l-1.38,1.54.65,1.34,1.23,2.51c-.26.28-.5.56-.73.86l-1.87,2.09h-.01s-4.35,4.9-4.35,4.9l-1.89-3.87-.04-.08-.05.18-2.1,8.35-1.08,4.29H.03l3.83-15.19,2.82-11.16h0S10.28.03,10.28.03h10l-2.47,9.79L26.53.03h11.63l-8.48,9.52-8.02,9.01Z"/>
    <path class="cls-2" d="M55.2,9.54l-6.95,27.56-.48,1.9c-1.8,5.51-6.65,9.63-12.56,10.37-.62.08-1.26.12-1.9.12-3.27,0-6.3-1.03-8.78-2.79-1.9-1.35-3.47-3.12-4.59-5.17-.01-.02-.01-.03-.03-.05l-.45-.93c-.81-1.78-1.28-3.75-1.34-5.83l6.01-6.74,3.06-3.44-1.64-3.34-.32-.67,8.22-9.23-1.99,7.89-.2.77-3.1,12.33c-.17.42-.28.86-.34,1.32l-.32,1.29.62,1.28c.13.38.31.74.53,1.07.98,1.55,2.7,2.57,4.66,2.57,2.46,0,4.54-1.6,5.26-3.81.08-.24.15-.49.19-.74l3.37-13.38,3.11-12.35h9.96Z"/>
  </g>
</svg>