<?xml version="1.0" encoding="UTF-8"?>
<svg id="Calque_2" data-name="Calque 2" xmlns="http://www.w3.org/2000/svg" viewBox="0 0 93.5 73.24">
  <defs>
    <style>
      .cls-1 {
        fill: #5438a4;
      }

      .cls-1, .cls-2 {
        stroke: #fff;
        stroke-miterlimit: 10;
        stroke-width: .07px;
      }

      .cls-2 {
        fill: #fff;
      }
    </style>
  </defs>
  <g id="Calque_1-2" data-name="Calque 1">
    <polygon class="cls-1" points="93.44 73.2 73.6 73.2 59.07 48.73 59.07 48.72 56.72 44.77 49.14 32.01 51.37 28.26 59.07 15.3 68.13 .04 87.98 .04 68.99 32.01 93.44 73.2"/>
    <path class="cls-2" d="M56.26,49.85c-1.64,9.09-7.7,17.2-16.85,21.07-4.77,2.01-9.77,2.62-14.56,2.01-7.63-.96-14.7-5.01-19.36-11.39-1.26-1.73-2.34-3.63-3.21-5.69-3.3-7.8-2.83-16.25.58-23.32l2.51-4.23L22.16.04h19.85l-5.93,9.98-1.73,2.92-2.26,3.81-12.96,21.83s-.05.08-.08.12c-.17.26-.33.53-.48.81-.01.01-.01.03-.02.04-.86,1.58-1.34,3.4-1.34,5.32,0,6.21,5.04,11.24,11.25,11.24,3.88,0,7.3-1.96,9.32-4.95.02-.04.04-.07.07-.1.17-.27.34-.55.49-.83.01-.02.02-.03.02-.05l9.05-15.23,8.85,14.91Z"/>
  </g>
</svg>